name C:\Users\tom_v\MusculoskeletalSpecialization\ResultsSprinting\Case_2\motion.mot
datacolumns 32
datarows 11
range 0.29221182 0.33117339
endheader 
time	pelvis_tilt	pelvis_list	pelvis_rotation	pelvis_tx	pelvis_ty	pelvis_tz	hip_flexion_r	hip_adduction_r	hip_rotation_r	knee_angle_r	ankle_angle_r	subtalar_angle_r	mtp_angle_r	hip_flexion_l	hip_adduction_l	hip_rotation_l	knee_angle_l	ankle_angle_l	subtalar_angle_l	mtp_angle_l	lumbar_extension	lumbar_bending	lumbar_rotation	arm_flex_r	arm_add_r	arm_rot_r	elbow_flex_r	arm_flex_l	arm_add_l	arm_rot_l	elbow_flex_l	
          0.29221182	         -9.34219289	         -9.39316360	         16.83153285	          2.88787740	          0.96458176	         -0.00585470	         56.95078467	         -1.06050518	         -8.31019117	        -59.72789651	         13.64018690	          3.05933946	          6.16153518	         -1.33547555	        -11.31908886	          6.70094716	        -33.00264953	        -19.62339059	         -5.04761508	         -2.17447862	         -7.04978718	          7.79084653	         -9.91598360	        -69.99555923	          3.55259375	         -6.59671192	          1.66081192	         49.99710015	        -42.40442128	         -7.73272106	        109.77793994	
          0.29610797	         -8.84486117	         -9.39102008	         16.83645923	          2.92602911	          0.96635784	         -0.00658640	         56.91290140	         -1.03290699	         -8.43890344	        -57.74618187	         14.48102982	          2.50506833	          6.43320771	         -2.27600655	        -11.54178533	          7.12244641	        -33.66787157	        -19.89919588	         -4.74404341	          0.68325486	         -7.58317757	          8.19786464	        -10.01866345	        -69.99498031	          2.83603388	        -11.01857366	          0.54466887	         49.99709565	        -42.41270328	         -5.48201412	        106.54798904	
          0.30000413	         -8.27259193	         -9.33015092	         16.90503917	          2.96408342	          0.96836709	         -0.00739348	         56.54736159	         -1.06907999	         -8.68352953	        -55.50044095	         15.24364694	          2.10541157	          6.59989489	         -3.16929168	        -11.66966821	          7.64226576	        -34.29896515	        -21.03247216	         -5.83192380	          2.61786014	         -8.23173268	          8.58195704	        -10.14608715	        -69.99756066	          2.14756275	        -13.08909342	          0.02883548	         49.98245296	        -42.47086754	         -3.27959487	        102.37918112	
          0.30390029	         -7.63904606	         -9.22639638	         17.02503461	          3.00206621	          0.97057158	         -0.00820933	         55.89460723	         -1.12294314	         -8.99584527	        -53.06318120	         15.98158163	          1.83282379	          6.43965148	         -3.98741509	        -11.76246602	          8.22717330	        -34.94867453	        -21.78180348	         -5.94717325	          3.58469886	         -8.97205242	          8.95812362	        -10.30025715	        -69.98013620	          1.55321967	        -12.90277332	          0.02949747	         49.97707653	        -42.54853116	         -1.25646720	         97.19194492	
          0.30779645	         -6.96525856	         -9.07331146	         17.16958749	          3.04001101	          0.97294523	         -0.00897673	         55.00552109	         -1.16560283	         -9.31414832	        -50.51569113	         16.73520973	          1.62578786	          5.57259450	         -4.71705241	        -11.82859894	          8.77657978	        -35.62839687	        -21.84849609	         -4.97299651	          4.36798426	         -9.78110595	          9.31427432	        -10.47775587	        -69.76839463	          1.07505567	        -11.00409498	          0.10737106	         49.98755687	        -42.59739063	          0.46573644	         90.94041571	
          0.31169260	         -6.26976590	         -8.85726914	         17.31242943	          3.07794677	          0.97546415	         -0.00966848	         53.92656519	         -1.18762695	         -9.59051865	        -47.93274435	         17.46870266	          1.41584215	          4.16483621	         -5.35213300	        -11.84764709	          9.18394726	        -36.31209560	        -22.06204224	         -4.36323220	          5.09227602	        -10.64671412	          9.63276585	        -10.67681579	        -69.32952473	          0.72435949	         -8.24119876	          0.26632712	         49.99919601	        -42.59562994	          1.82303613	         83.73605830	
          0.31558876	         -5.56719331	         -8.58534390	         17.44007638	          3.11588745	          0.97807957	         -0.01027629	         52.69790919	         -1.18070214	         -9.80655652	        -45.36843236	         18.16103953	          1.18162910	          2.73123876	         -5.87555262	        -11.82552678	          9.41374230	        -37.01900950	        -22.24527827	         -4.25607349	          5.49073359	        -11.55796829	          9.91608188	        -10.89832925	        -68.77496368	          0.48724815	         -5.59096792	          0.92617617	         49.99868514	        -42.57354492	          2.91309859	         75.84490699	
          0.31948492	         -4.88745466	         -8.27060199	         17.54303244	          3.15382728	          0.98070818	         -0.01081201	         51.37350813	         -1.14733009	         -9.95458295	        -42.86314413	         18.85443088	          0.98851036	          1.46683999	         -6.24638454	        -11.76634086	          9.48610717	        -37.78017576	        -22.09723106	         -4.06576133	          5.77012823	        -12.48267158	         10.16299299	        -11.14018491	        -68.24794702	          0.30190206	         -3.89478123	          2.56879341	         49.99724212	        -42.50715438	          3.87952223	         67.50092853	
          0.32338108	         -4.32805784	         -7.89610844	         17.60365479	          3.19174167	          0.98315185	         -0.01126355	         50.08543989	         -1.13389091	         -9.99992624	        -40.47952334	         19.58226162	          1.00295849	          0.08813396	         -6.35739241	        -11.61338710	          9.43542521	        -38.61443276	        -21.90608506	         -3.64782449	          6.07344530	        -13.31875072	         10.31153412	        -11.41490953	        -67.89166305	          0.12795136	         -3.67926687	          5.61725107	         49.99955997	        -42.41943362	          4.96490588	         58.91482007	
          0.32727723	         -3.91894272	         -7.46427417	         17.60881790	          3.22963914	          0.98532069	         -0.01161177	         48.87800608	         -1.15021732	         -9.94463773	        -38.23614552	         20.27123639	          1.29069210	         -1.34162402	         -6.18797281	        -11.36187616	          9.25326870	        -39.51451923	        -21.73145748	         -3.03898889	          6.27029870	        -14.03023093	         10.34220351	        -11.72270154	        -67.83655664	         -0.01255245	         -5.00421068	         10.40645723	         49.97635346	        -42.36888138	          6.49224767	         50.32864406	
          0.33117339	         -3.66550591	         -7.04714415	         17.55102427	          3.26754980	          0.98713866	         -0.01185242	         47.75817872	         -1.14355918	         -9.84807288	        -36.09441855	         20.77624324	          1.77944664	         -1.98755978	         -5.72965056	        -11.09447007	          8.90724965	        -40.48003260	        -21.38834868	         -2.37680207	          6.37548784	        -14.57955221	         10.32625691	        -12.05022212	        -68.17004512	         -0.05892511	         -7.38707889	         17.10722826	         49.76924276	        -42.38874709	          8.72475949	         42.10090821	
